<svg width="24" height="24" viewBox="0 0 24 24" fill="none" xmlns="http://www.w3.org/2000/svg">
<path fill-rule="evenodd" clip-rule="evenodd" d="M13.8751 4.96153L8.30084 9.68751C8.11919 9.84152 7.89733 9.94043 7.66137 9.9726L5.12501 10.3185V13.6818L7.66137 14.0277C7.89733 14.0599 8.11919 14.1588 8.30084 14.3128L13.8751 19.0388V4.96153ZM14.1549 2.26612C14.7843 1.73246 15.7501 2.17986 15.7501 3.00505V20.9953C15.7501 21.8205 14.7843 22.2678 14.1549 21.7342L7.22737 15.8609L4.33112 15.4659C3.71176 15.3815 3.25 14.8525 3.25 14.2274V9.77291C3.25 9.14782 3.71176 8.61882 4.33112 8.53436L7.22737 8.13942L14.1549 2.26612Z" fill="black"/>
<path fill-rule="evenodd" clip-rule="evenodd" d="M17.9994 7.50053C18.4134 7.18952 19.0011 7.27297 19.3121 7.68692C20.2148 8.8884 20.7501 10.3834 20.7501 12.0007C20.7501 13.618 20.2148 15.113 19.3121 16.3145C19.0011 16.7284 18.4134 16.8119 17.9994 16.5009C17.5855 16.1899 17.502 15.6022 17.813 15.1882C18.4801 14.3003 18.8751 13.198 18.8751 12.0007C18.8751 10.8034 18.4801 9.7011 17.813 8.8132C17.502 8.39924 17.5855 7.81154 17.9994 7.50053Z" fill="black"/>
</svg>
